<?xml version="1.0" encoding="utf-8"?>
<!-- Generator: Adobe Illustrator 22.1.0, SVG Export Plug-In . SVG Version: 6.00 Build 0)  -->
<svg version="1.1" id="Layer_1" xmlns="http://www.w3.org/2000/svg" xmlns:xlink="http://www.w3.org/1999/xlink" x="0px" y="0px"
	 viewBox="0 0 200 150" style="enable-background:new 0 0 200 150;" xml:space="preserve">
<style type="text/css">
	.st0{fill:#969696;}
</style>
<g>
	<path class="st0" d="M60,30.6h6.7l-0.6,2.4h-1.9l-3.7,16h1.9l-0.5,2.4h-6.7l0.5-2.4h2l3.7-16h-2L60,30.6z"/>
	<path class="st0" d="M68.8,37.1h5.3l-0.3,1.4c0.6-0.5,1.4-1,2.1-1.3c0.8-0.3,1.6-0.5,2.4-0.5c1,0,1.8,0.2,2.5,0.6
		c0.7,0.4,1.2,1,1.5,1.8c0.3-0.3,0.7-0.7,1.1-1c0.4-0.3,0.8-0.5,1.3-0.7c0.5-0.2,0.9-0.4,1.4-0.5c0.5-0.1,1-0.2,1.5-0.2
		c0.7,0,1.4,0.1,2,0.3s1.1,0.6,1.4,1c0.4,0.4,0.6,1,0.7,1.7c0.1,0.7,0.1,1.4-0.1,2.3l-1.6,6.8h2l-0.5,2.4h-4.8l2-8.8
		c0.3-1.1,0.2-1.9-0.2-2.4c-0.4-0.5-1.1-0.8-2.1-0.8c-0.7,0-1.4,0.2-2,0.5c-0.6,0.3-1.2,0.7-1.8,1.3l-2.4,10.3h-2.8l2-8.8
		c0.3-1.1,0.2-1.9-0.2-2.4c-0.4-0.5-1.1-0.8-2.1-0.8c-0.7,0-1.4,0.2-2,0.5c-0.6,0.3-1.2,0.7-1.8,1.3L71,51.3h-2.8l2.7-11.8h-2.7
		L68.8,37.1z"/>
	<path class="st0" d="M105,50.3c-0.6,0.4-1.2,0.7-1.8,0.9s-1.2,0.3-1.9,0.3c-0.8,0-1.5-0.2-2.2-0.5c-0.7-0.3-1.3-0.7-1.8-1.2
		c-0.5-0.5-0.9-1.1-1.2-1.8c-0.3-0.7-0.4-1.5-0.4-2.3c0-1.3,0.2-2.5,0.7-3.6c0.5-1.1,1.1-2.1,1.9-2.8c0.8-0.8,1.7-1.4,2.8-1.8
		c1.1-0.4,2.2-0.7,3.4-0.7c0.7,0,1.3,0.1,1.9,0.3s1.1,0.5,1.5,0.8l0.2-0.7h2.7L108,48.9h2.2l-0.5,2.4h-5L105,50.3z M101.8,49.2
		c0.3,0,0.7,0,1-0.1c0.4-0.1,0.7-0.2,1-0.3c0.3-0.1,0.6-0.3,0.9-0.4c0.3-0.2,0.5-0.3,0.8-0.5l1.8-7.6c-0.2-0.3-0.6-0.6-1.1-0.8
		c-0.5-0.2-1.2-0.3-2-0.3c-0.7,0-1.4,0.1-2.1,0.4s-1.3,0.7-1.8,1.2c-0.5,0.5-1,1.2-1.3,2c-0.3,0.8-0.5,1.7-0.5,2.7
		c0,0.6,0.1,1.1,0.2,1.6c0.2,0.5,0.4,0.9,0.7,1.2c0.3,0.3,0.6,0.6,1.1,0.7C100.9,49.1,101.4,49.2,101.8,49.2z"/>
	<path class="st0" d="M123,50.4c-0.6,0.4-1.2,0.7-1.8,0.9s-1.3,0.3-2,0.3c-0.8,0-1.5-0.2-2.2-0.5s-1.3-0.7-1.8-1.2s-0.9-1.1-1.2-1.8
		c-0.3-0.7-0.4-1.5-0.4-2.3c0-1.3,0.2-2.5,0.7-3.6c0.5-1.1,1.1-2.1,1.9-2.8s1.7-1.4,2.8-1.8s2.2-0.7,3.4-0.7c0.7,0,1.3,0.1,1.9,0.3
		s1.1,0.5,1.5,0.8l0.2-0.7h2.8l-3.3,14c-0.3,1.2-0.6,2.2-1.1,3s-1,1.5-1.7,2c-0.7,0.5-1.4,0.9-2.3,1.2s-1.9,0.4-3,0.4
		c-0.5,0-1,0-1.6-0.1s-1.1-0.2-1.6-0.4c-0.5-0.2-1-0.4-1.5-0.6c-0.5-0.3-0.9-0.6-1.2-0.9l1.8-2c0.2,0.2,0.5,0.5,0.8,0.6
		c0.3,0.2,0.7,0.4,1,0.5c0.4,0.1,0.8,0.3,1.2,0.3s0.8,0.1,1.3,0.1c0.7,0,1.3-0.1,1.8-0.2c0.5-0.1,1-0.4,1.4-0.7
		c0.4-0.4,0.8-0.8,1.1-1.4C122.4,52.3,122.7,51.5,123,50.4z M119.9,49.2c0.7,0,1.4-0.1,2-0.4c0.6-0.3,1.2-0.6,1.7-1l1.8-7.5
		c-0.2-0.3-0.6-0.6-1.1-0.8s-1.2-0.3-2-0.3c-0.7,0-1.4,0.1-2.1,0.4s-1.3,0.7-1.8,1.2c-0.5,0.5-1,1.2-1.3,2c-0.3,0.8-0.5,1.7-0.5,2.7
		c0,0.6,0.1,1.1,0.2,1.6c0.2,0.5,0.4,0.9,0.7,1.2c0.3,0.3,0.6,0.6,1.1,0.7C118.9,49.1,119.4,49.2,119.9,49.2z"/>
	<path class="st0" d="M133.7,44.7c0,0.1,0,0.2,0,0.3c0,0.1,0,0.2,0,0.3c0,0.6,0.1,1.1,0.3,1.6s0.4,0.9,0.8,1.3
		c0.3,0.4,0.7,0.6,1.2,0.8s1,0.3,1.5,0.3c0.7,0,1.4-0.1,2.1-0.4c0.7-0.3,1.2-0.7,1.7-1.3l2,1.5c-0.3,0.4-0.7,0.8-1.1,1.1
		s-0.9,0.6-1.4,0.8s-1.1,0.4-1.7,0.5s-1.2,0.2-1.8,0.2c-0.9,0-1.7-0.1-2.5-0.4s-1.4-0.7-2-1.3c-0.6-0.6-1-1.2-1.3-2
		s-0.5-1.7-0.5-2.7c0-1.2,0.2-2.3,0.6-3.3c0.4-1,1-1.9,1.7-2.7c0.7-0.8,1.6-1.4,2.6-1.8c1-0.4,2.1-0.7,3.3-0.7
		c0.9,0,1.7,0.2,2.4,0.5c0.7,0.3,1.3,0.7,1.8,1.2c0.5,0.5,0.9,1.1,1.1,1.7s0.4,1.3,0.4,2c0,0.5,0,0.9-0.1,1.3c0,0.4-0.1,0.8-0.2,1.2
		H133.7z M138.7,39c-0.5,0-1.1,0.1-1.5,0.3c-0.5,0.2-0.9,0.4-1.3,0.7c-0.4,0.3-0.7,0.7-1,1.1c-0.3,0.4-0.5,0.9-0.7,1.4h8.1
		c0-0.6-0.1-1.1-0.2-1.5c-0.2-0.4-0.4-0.8-0.7-1.1s-0.7-0.5-1.1-0.6C139.7,39.1,139.3,39,138.7,39z"/>
	<path class="st0" d="M51.9,80.5c-0.5,0.7-1.1,1.4-1.8,2c-0.6,0.6-1.4,1.1-2.1,1.5c-0.8,0.4-1.6,0.7-2.5,0.9s-1.9,0.3-2.9,0.3
		c-1.2,0-2.4-0.2-3.5-0.7c-1.1-0.5-2-1.1-2.8-1.9c-0.8-0.8-1.4-1.8-1.8-2.9c-0.4-1.1-0.7-2.4-0.7-3.7c0-1.1,0.1-2.2,0.4-3.3
		c0.3-1,0.6-2,1.1-2.9c0.5-0.9,1.1-1.7,1.8-2.4c0.7-0.7,1.5-1.4,2.4-1.9c0.9-0.5,1.8-0.9,2.8-1.2c1-0.3,2.1-0.4,3.2-0.4
		c1.5,0,2.9,0.3,4.1,0.9c1.2,0.6,2.2,1.5,3,2.6h2.1l-0.6,2.4h-3.8c-0.2-0.5-0.5-0.9-0.8-1.3c-0.3-0.4-0.7-0.7-1.2-1
		c-0.4-0.3-0.9-0.5-1.5-0.6s-1.1-0.2-1.8-0.2c-1.2,0-2.3,0.2-3.3,0.7c-1,0.5-1.9,1.2-2.7,2c-0.7,0.8-1.3,1.8-1.8,2.9
		c-0.4,1.1-0.6,2.3-0.6,3.6c0,1,0.2,2,0.5,2.8c0.3,0.8,0.8,1.6,1.3,2.1s1.2,1,1.9,1.4c0.7,0.3,1.5,0.5,2.3,0.5
		c1.4,0,2.6-0.3,3.6-0.9c1-0.6,2-1.4,2.8-2.6L51.9,80.5z"/>
	<path class="st0" d="M65.8,70.7h4.6l-2.7,11.8h2.1l-0.5,2.4h-4.8l0.3-1.4c-0.3,0.3-0.6,0.6-0.9,0.8c-0.3,0.2-0.7,0.4-1,0.5
		c-0.4,0.1-0.7,0.2-1,0.3s-0.7,0.1-1,0.1c-0.6,0-1.2-0.1-1.8-0.3c-0.6-0.2-1-0.4-1.4-0.8c-0.2-0.2-0.4-0.5-0.6-0.8
		c-0.2-0.3-0.3-0.7-0.5-1.1s-0.2-0.9-0.2-1.5c0-0.6,0.1-1.2,0.3-2l1.3-5.6h-1.9l0.6-2.4h4.6l-1.7,7.2c-0.4,1.7-0.4,2.9,0,3.7
		s1.2,1.2,2.3,1.2c0.5,0,1-0.1,1.4-0.3c0.4-0.2,0.8-0.4,1.1-0.7c0.3-0.3,0.6-0.7,0.8-1l1.8-7.7h-1.9L65.8,70.7z"/>
	<path class="st0" d="M84.3,74.6h-2.8l0.4-1.7c-0.9,0-1.6,0.2-2.3,0.7c-0.6,0.5-1.1,1-1.5,1.8l-1.6,7.1h2.4l-0.5,2.4h-5.1l2.7-11.8
		h-2.7l0.6-2.4h5.3l-0.5,1.9c0.3-0.3,0.5-0.6,0.8-0.8c0.3-0.2,0.6-0.5,0.9-0.6c0.3-0.2,0.7-0.3,1-0.4c0.4-0.1,0.7-0.2,1.1-0.2
		c0.3,0,0.6,0,0.8,0c0.2,0,0.5,0,0.8,0c0.3,0,0.6,0.1,1.1,0.1L84.3,74.6z"/>
	<path class="st0" d="M98.7,74.6h-2.8l0.4-1.7c-0.9,0-1.6,0.2-2.3,0.7c-0.6,0.5-1.1,1-1.5,1.8l-1.6,7.1h2.4l-0.5,2.4h-5.1l2.7-11.8
		h-2.7l0.6-2.4h5.3l-0.5,1.9c0.3-0.3,0.5-0.6,0.8-0.8c0.3-0.2,0.6-0.5,0.9-0.6c0.3-0.2,0.7-0.3,1-0.4c0.4-0.1,0.7-0.2,1.1-0.2
		c0.3,0,0.6,0,0.8,0c0.2,0,0.5,0,0.8,0c0.3,0,0.6,0.1,1.1,0.1L98.7,74.6z"/>
	<path class="st0" d="M102.9,78.3c0,0.1,0,0.2,0,0.3c0,0.1,0,0.2,0,0.3c0,0.6,0.1,1.1,0.3,1.6c0.2,0.5,0.4,0.9,0.8,1.3
		c0.3,0.4,0.7,0.6,1.2,0.8c0.5,0.2,1,0.3,1.5,0.3c0.7,0,1.4-0.1,2.1-0.4c0.7-0.3,1.2-0.7,1.7-1.3l2,1.5c-0.3,0.4-0.7,0.8-1.1,1.1
		c-0.4,0.3-0.9,0.6-1.4,0.8s-1.1,0.4-1.7,0.5s-1.2,0.2-1.8,0.2c-0.9,0-1.7-0.1-2.5-0.4c-0.8-0.3-1.4-0.7-2-1.3c-0.6-0.6-1-1.2-1.3-2
		c-0.3-0.8-0.5-1.7-0.5-2.7c0-1.2,0.2-2.3,0.6-3.3c0.4-1,1-1.9,1.7-2.7c0.7-0.8,1.6-1.4,2.6-1.8c1-0.4,2.1-0.7,3.3-0.7
		c0.9,0,1.7,0.2,2.4,0.5c0.7,0.3,1.3,0.7,1.8,1.2s0.9,1.1,1.1,1.7c0.3,0.7,0.4,1.3,0.4,2c0,0.5,0,0.9-0.1,1.3c0,0.4-0.1,0.8-0.2,1.2
		H102.9z M108,72.6c-0.5,0-1.1,0.1-1.5,0.3s-0.9,0.4-1.3,0.7c-0.4,0.3-0.7,0.7-1,1.1s-0.5,0.9-0.7,1.4h8.1c0-0.6-0.1-1.1-0.2-1.5
		c-0.2-0.4-0.4-0.8-0.7-1.1c-0.3-0.3-0.7-0.5-1.1-0.6C109,72.7,108.5,72.6,108,72.6z"/>
	<path class="st0" d="M117.2,70.7h5.3l-0.3,1.4c0.6-0.5,1.4-1,2.1-1.3s1.6-0.5,2.4-0.5c0.7,0,1.4,0.1,2,0.3s1.1,0.6,1.4,1
		s0.6,1,0.7,1.7s0.1,1.4-0.1,2.3l-1.6,6.8h2l-0.5,2.4h-4.8l2-8.8c0.3-1.1,0.2-1.9-0.2-2.4s-1.1-0.8-2.1-0.8c-0.7,0-1.4,0.2-2,0.5
		c-0.6,0.3-1.2,0.7-1.8,1.3l-2.4,10.3h-2.8l2.7-11.8h-2.7L117.2,70.7z"/>
	<path class="st0" d="M134.5,70.7h2.4l0.8-3.4l2.9-1.2l-1.1,4.6h3l-0.6,2.4h-3l-1.8,7.6c0,0.2-0.1,0.4-0.1,0.6s-0.1,0.4-0.1,0.6
		c0,0.4,0.1,0.7,0.3,0.9s0.6,0.3,1.1,0.3c0.5,0,1.1-0.2,1.9-0.5l0.2,2c-0.5,0.2-0.9,0.4-1.4,0.5s-0.9,0.2-1.5,0.2
		c-0.6,0-1.1-0.1-1.6-0.2s-0.9-0.4-1.2-0.7s-0.5-0.7-0.6-1.3s-0.1-1.2,0.1-1.9l2-8h-2.3L134.5,70.7z"/>
	<path class="st0" d="M145.5,63.6h5.5l-4.4,18.9h2.4l-0.5,2.4h-5.1l4.3-18.9h-2.7L145.5,63.6z"/>
	<path class="st0" d="M152.8,70.7h5.2l-0.6,2.4h-1.1l0.8,8.7l5.6-8.7h-1.2l0.6-2.4h5.2l-0.6,2.4h-1.2L155.5,89h1.4l-0.6,2.4h-5.6
		l0.6-2.4h1.4l2.5-4l-1.6-11.9h-1.3L152.8,70.7z"/>
	<path class="st0" d="M21.6,97.8h6.7l-0.5,2.4h-1.9l-2.2,9.6c-0.1,0.3-0.1,0.7-0.2,1c-0.1,0.4-0.1,0.8-0.1,1.2c0,0.5,0.1,1,0.2,1.5
		s0.4,0.9,0.8,1.3c0.3,0.4,0.8,0.7,1.3,0.9c0.5,0.2,1.2,0.4,1.9,0.4c0.8,0,1.5-0.1,2.1-0.3s1.2-0.6,1.7-1.1s1-1.1,1.4-2s0.7-1.8,1-3
		l2.2-9.6H34l0.5-2.4h6.7l-0.5,2.4h-1.8l-2.3,9.9c-0.4,1.6-0.8,2.9-1.4,4s-1.3,2-2.1,2.7c-0.8,0.7-1.7,1.2-2.6,1.6
		c-1,0.3-2,0.5-3.1,0.5c-1,0-1.9-0.1-2.8-0.4c-0.9-0.3-1.6-0.7-2.2-1.3s-1.1-1.2-1.4-2.1s-0.5-1.7-0.5-2.8c0-0.4,0-0.8,0.1-1.2
		s0.1-0.8,0.2-1.3l2.2-9.6h-2L21.6,97.8z"/>
	<path class="st0" d="M41.9,104.3h5.3l-0.3,1.4c0.6-0.5,1.4-1,2.1-1.3c0.8-0.3,1.6-0.5,2.4-0.5c0.7,0,1.4,0.1,2,0.3s1.1,0.6,1.4,1
		c0.4,0.4,0.6,1,0.7,1.7c0.1,0.7,0.1,1.4-0.1,2.3l-1.6,6.8h2l-0.5,2.4h-4.8l2-8.8c0.3-1.1,0.2-1.9-0.2-2.4c-0.4-0.5-1.1-0.8-2.1-0.8
		c-0.7,0-1.4,0.2-2,0.5c-0.6,0.3-1.2,0.7-1.8,1.3l-2.4,10.3h-2.8l2.7-11.8h-2.7L41.9,104.3z"/>
	<path class="st0" d="M67.3,117.5c-0.6,0.4-1.2,0.7-1.8,0.9s-1.3,0.3-1.9,0.3c-0.8,0-1.5-0.2-2.2-0.5c-0.7-0.3-1.3-0.7-1.8-1.2
		c-0.5-0.5-0.9-1.1-1.2-1.8s-0.4-1.5-0.4-2.3c0-1.3,0.2-2.5,0.7-3.6s1.1-2.1,1.9-2.8c0.8-0.8,1.7-1.4,2.8-1.8
		c1.1-0.4,2.2-0.7,3.4-0.7c0.7,0,1.3,0.1,1.9,0.3s1.1,0.5,1.5,0.8l0.2-0.7h2.7l-2.7,11.8h2.2l-0.5,2.4h-5L67.3,117.5z M64.2,116.4
		c0.3,0,0.7,0,1-0.1c0.4-0.1,0.7-0.2,1-0.3c0.3-0.1,0.6-0.3,0.9-0.4c0.3-0.2,0.5-0.3,0.8-0.5l1.8-7.6c-0.2-0.3-0.6-0.6-1.1-0.8
		c-0.5-0.2-1.2-0.3-2-0.3c-0.7,0-1.4,0.1-2.1,0.4s-1.3,0.7-1.8,1.2c-0.5,0.5-1,1.2-1.3,2c-0.3,0.8-0.5,1.7-0.5,2.7
		c0,0.6,0.1,1.1,0.2,1.6s0.4,0.8,0.7,1.2c0.3,0.3,0.6,0.6,1.1,0.7C63.3,116.3,63.7,116.4,64.2,116.4z"/>
	<path class="st0" d="M75.8,104.3H81l-0.6,2.4h-1.1l0.8,8.7l5.6-8.7h-1.1l0.6-2.4h5.2l-0.6,2.4h-1.1l-8.1,12h-2.4l-1.6-12h-1.3
		L75.8,104.3z"/>
	<path class="st0" d="M99.8,117.5c-0.6,0.4-1.2,0.7-1.8,0.9s-1.3,0.3-1.9,0.3c-0.8,0-1.5-0.2-2.2-0.5c-0.7-0.3-1.3-0.7-1.8-1.2
		c-0.5-0.5-0.9-1.1-1.2-1.8s-0.4-1.5-0.4-2.3c0-1.3,0.2-2.5,0.7-3.6s1.1-2.1,1.9-2.8c0.8-0.8,1.7-1.4,2.8-1.8
		c1.1-0.4,2.2-0.7,3.4-0.7c0.7,0,1.3,0.1,1.9,0.3c0.6,0.2,1.1,0.5,1.5,0.8l0.2-0.7h2.7l-2.7,11.8h2.2l-0.5,2.4h-5L99.8,117.5z
		 M96.7,116.4c0.3,0,0.7,0,1-0.1c0.4-0.1,0.7-0.2,1-0.3c0.3-0.1,0.6-0.3,0.9-0.4c0.3-0.2,0.5-0.3,0.8-0.5l1.8-7.6
		c-0.2-0.3-0.6-0.6-1.1-0.8c-0.5-0.2-1.2-0.3-2-0.3c-0.7,0-1.4,0.1-2.1,0.4s-1.3,0.7-1.8,1.2c-0.5,0.5-1,1.2-1.3,2
		c-0.3,0.8-0.5,1.7-0.5,2.7c0,0.6,0.1,1.1,0.2,1.6s0.4,0.8,0.7,1.2c0.3,0.3,0.6,0.6,1.1,0.7C95.7,116.3,96.2,116.4,96.7,116.4z"/>
	<path class="st0" d="M109.1,104.3h5.3l-2.7,11.8h2.3l-0.5,2.4h-5l2.7-11.8h-2.5L109.1,104.3z M111.7,99.3c0-0.2,0-0.5,0.1-0.7
		s0.2-0.4,0.4-0.6s0.4-0.3,0.6-0.4s0.5-0.1,0.7-0.1c0.2,0,0.5,0,0.7,0.1s0.4,0.2,0.6,0.4s0.3,0.3,0.4,0.6s0.1,0.5,0.1,0.7
		s0,0.5-0.1,0.7s-0.2,0.4-0.4,0.6s-0.3,0.3-0.6,0.4s-0.5,0.2-0.7,0.2c-0.3,0-0.5,0-0.7-0.2s-0.4-0.2-0.6-0.4s-0.3-0.4-0.4-0.6
		S111.7,99.6,111.7,99.3z"/>
	<path class="st0" d="M118.5,97.2h5.5l-4.4,18.9h2.4l-0.5,2.4h-5.1l4.3-18.9h-2.7L118.5,97.2z"/>
	<path class="st0" d="M133.8,117.5c-0.6,0.4-1.2,0.7-1.8,0.9s-1.3,0.3-1.9,0.3c-0.8,0-1.5-0.2-2.2-0.5s-1.3-0.7-1.8-1.2
		s-0.9-1.1-1.2-1.8s-0.4-1.5-0.4-2.3c0-1.3,0.2-2.5,0.7-3.6s1.1-2.1,1.9-2.8s1.7-1.4,2.8-1.8s2.2-0.7,3.4-0.7c0.7,0,1.3,0.1,1.9,0.3
		s1.1,0.5,1.5,0.8l0.2-0.7h2.7l-2.7,11.8h2.2l-0.5,2.4h-5L133.8,117.5z M130.7,116.4c0.3,0,0.7,0,1-0.1s0.7-0.2,1-0.3
		s0.6-0.3,0.9-0.4s0.5-0.3,0.8-0.5l1.8-7.6c-0.2-0.3-0.6-0.6-1.1-0.8s-1.2-0.3-2-0.3c-0.7,0-1.4,0.1-2.1,0.4s-1.3,0.7-1.8,1.2
		s-1,1.2-1.3,2s-0.5,1.7-0.5,2.7c0,0.6,0.1,1.1,0.2,1.6s0.4,0.8,0.7,1.2s0.6,0.6,1.1,0.7S130.2,116.4,130.7,116.4z"/>
	<path class="st0" d="M144.3,97.2h5.4l-1.8,8c1.2-0.8,2.5-1.3,3.8-1.3c0.8,0,1.5,0.2,2.2,0.5s1.3,0.7,1.8,1.2s0.9,1.1,1.2,1.8
		s0.4,1.5,0.4,2.3c0,0.9-0.1,1.7-0.3,2.5s-0.5,1.5-0.9,2.2s-0.8,1.3-1.4,1.8s-1.1,1-1.8,1.4s-1.3,0.7-2.1,0.9s-1.5,0.3-2.3,0.3
		c-0.7,0-1.4-0.1-2-0.3s-1.1-0.5-1.5-0.8l-0.2,0.9H142l4.3-18.9h-2.6L144.3,97.2z M151,106.3c-0.6,0-1.3,0.1-1.9,0.4
		s-1.3,0.6-1.8,1.1l-1.7,7.5c0.2,0.3,0.6,0.6,1.1,0.8s1.2,0.3,2,0.3c0.7,0,1.4-0.1,2.1-0.4s1.3-0.7,1.8-1.2s1-1.2,1.3-2
		s0.5-1.7,0.5-2.7c0-0.6-0.1-1.1-0.2-1.6s-0.4-0.8-0.7-1.2s-0.7-0.6-1.1-0.7S151.5,106.3,151,106.3z"/>
	<path class="st0" d="M161.2,97.2h5.5l-4.4,18.9h2.4l-0.5,2.4H159l4.3-18.9h-2.7L161.2,97.2z"/>
	<path class="st0" d="M170.1,111.9c0,0.1,0,0.2,0,0.3s0,0.2,0,0.3c0,0.6,0.1,1.1,0.3,1.6s0.4,0.9,0.8,1.3s0.7,0.6,1.2,0.8
		s1,0.3,1.5,0.3c0.7,0,1.4-0.1,2.1-0.4s1.2-0.7,1.7-1.3l2,1.5c-0.3,0.4-0.7,0.8-1.1,1.1s-0.9,0.6-1.4,0.8s-1.1,0.4-1.7,0.5
		s-1.2,0.2-1.8,0.2c-0.9,0-1.7-0.1-2.5-0.4s-1.4-0.7-2-1.3s-1-1.2-1.3-2s-0.5-1.7-0.5-2.7c0-1.2,0.2-2.3,0.6-3.3s1-1.9,1.7-2.7
		s1.6-1.4,2.6-1.8s2.1-0.7,3.3-0.7c0.9,0,1.7,0.2,2.4,0.5s1.3,0.7,1.8,1.2s0.9,1.1,1.1,1.7s0.4,1.3,0.4,2c0,0.5,0,0.9-0.1,1.3
		s-0.1,0.8-0.2,1.2H170.1z M175.2,106.2c-0.5,0-1.1,0.1-1.5,0.3s-0.9,0.4-1.3,0.7s-0.7,0.7-1,1.1s-0.5,0.9-0.7,1.4h8.1
		c0-0.6-0.1-1.1-0.2-1.5s-0.4-0.8-0.7-1.1s-0.7-0.5-1.1-0.6S175.7,106.2,175.2,106.2z"/>
</g>
</svg>
